<svg id="Слой_1" xmlns="http://www.w3.org/2000/svg" viewBox="0 0 80 81"><style>.st0{fill:#f15822;} .st1{fill:#E6EBEC;}</style><g id="Group"><path id="Shape" class="st0" d="M54 39.5c.7-.8 1-1.7 1-2.7 0-.9-.3-1.8-1-2.5s-1.5-1-2.4-1h-5c0-.2.1-.3.1-.4 0-.1.1-.3.2-.4.1-.1.1-.3.2-.3l.5-1c.1-.3.2-.6.3-1.1.1-.5.2-.9.2-1.4V28c0-.2 0-.5-.1-.8-.1-.4-.1-.7-.2-.9-.1-.2-.2-.5-.4-.8-.2-.3-.4-.5-.7-.7-.3-.2-.6-.3-1.1-.5S44.5 24 44 24c-.3 0-.6.1-.8.3-.2.2-.4.5-.6.9-.2.4-.3.7-.4.9-.1.3-.1.6-.2 1.1-.1.5-.2.9-.2 1.1-.1.2-.2.5-.3.9-.2.4-.3.7-.6.9-.4.4-1 1.1-1.8 2.2-.6.8-1.2 1.5-1.8 2.2-.6.7-1.1 1.1-1.4 1.1-.3 0-.6.1-.8.4-.2.2-.3.5-.3.8v11.7c0 .3.1.6.3.8s.5.3.8.4c.4 0 1.4.3 2.9.8.9.3 1.7.6 2.2.7.5.2 1.3.3 2.2.5.9.2 1.8.3 2.6.3h2.3c1.6 0 2.8-.5 3.6-1.4.7-.8 1-1.9.9-3.3.5-.4.8-1 1-1.7.2-.7.2-1.5 0-2.1.6-.7.8-1.6.8-2.5-.1-.5-.2-.9-.4-1.5z"/><path id="Shape_1_" class="st0" d="M32.5 35.6h-5.4c-.3 0-.6.1-.8.4-.2.2-.4.5-.4.8v12.1c0 .3.1.6.4.8.2.2.5.4.8.4h5.4c.3 0 .6-.1.8-.4.2-.2.4-.5.4-.8V36.8c0-.3-.1-.6-.4-.8-.2-.3-.4-.4-.8-.4zm-2.9 11.3c-.2.2-.4.3-.7.3-.3 0-.5-.1-.7-.3-.2-.2-.3-.4-.3-.7 0-.3.1-.5.3-.7.2-.2.4-.3.7-.3.3 0 .5.1.7.3.2.2.3.4.3.7 0 .3-.1.5-.3.7z"/></g><path class="st1" d="M40 0C17.9 0 0 18.1 0 40.5S17.9 81 40 81s40-18.1 40-40.5S62.1 0 40 0zm0 73C22.4 73 8 58.4 8 40.5S22.4 8 40 8s32 14.6 32 32.5S57.6 73 40 73z"/></svg>