<?xml version="1.0" standalone="no"?>
<!DOCTYPE svg PUBLIC "-//W3C//DTD SVG 20010904//EN"
 "http://www.w3.org/TR/2001/REC-SVG-20010904/DTD/svg10.dtd">
<svg version="1.0" xmlns="http://www.w3.org/2000/svg"
 width="229.000000pt" height="220.000000pt" viewBox="0 0 229.000000 220.000000"
 preserveAspectRatio="xMidYMid meet">
<metadata>
Created by potrace 1.16, written by Peter Selinger 2001-2019
</metadata>
<g transform="translate(0.000000,220.000000) scale(0.100000,-0.100000)"
fill="#000000" stroke="none">
<path d="M532 2190 c-91 -22 -152 -102 -152 -200 0 -108 64 -182 176 -205 54
-10 54 -11 98 -85 l43 -75 -54 -60 c-62 -68 -125 -188 -144 -270 -12 -54 -13
-55 -47 -55 -28 0 -41 8 -73 44 -68 77 -169 83 -243 13 -106 -101 -34 -287
112 -287 56 0 102 20 134 59 21 24 35 31 61 31 34 0 35 -1 42 -47 3 -27 14
-72 23 -101 10 -32 12 -56 6 -61 -5 -5 -61 -38 -124 -75 l-115 -66 -40 15
c-53 19 -82 18 -131 -4 -105 -48 -133 -177 -57 -262 81 -90 220 -74 273 31 11
22 20 52 20 69 0 27 10 35 117 98 65 37 120 69 123 71 4 1 44 -35 91 -80 56
-56 105 -93 146 -113 34 -16 62 -36 62 -42 1 -7 -19 -22 -44 -34 -100 -47
-132 -153 -75 -247 30 -48 75 -72 140 -72 65 0 110 24 140 72 40 66 38 129 -6
194 -14 20 -23 41 -21 47 2 6 35 9 83 8 44 -1 113 5 154 13 41 9 78 16 81 16
4 0 32 -43 64 -96 l57 -95 -16 -40 c-21 -51 -20 -132 0 -175 26 -54 85 -100
143 -113 210 -45 339 214 178 356 -34 30 -77 47 -136 55 -19 2 -37 24 -79 96
l-54 93 68 68 c98 96 146 183 184 330 l11 43 100 -4 99 -4 31 -37 c40 -49 77
-67 134 -67 100 0 169 68 169 165 0 97 -69 165 -169 165 -55 0 -93 -18 -129
-61 l-27 -31 -103 7 -103 7 -12 64 c-6 36 -20 87 -31 114 l-19 48 24 16 c21
14 27 14 59 1 95 -40 200 12 231 113 12 40 -4 110 -33 143 -38 46 -103 73
-159 64 -74 -11 -143 -88 -143 -159 0 -16 -9 -32 -25 -42 -24 -16 -26 -15 -95
49 -39 36 -100 80 -138 98 -37 19 -69 35 -71 36 -2 1 0 18 3 37 5 28 13 37 41
46 39 13 92 68 101 106 11 44 -2 120 -26 154 -26 36 -90 70 -135 70 -45 0
-109 -34 -135 -70 -24 -34 -37 -110 -26 -154 3 -13 17 -38 31 -54 21 -26 23
-33 14 -66 -10 -37 -10 -37 -53 -31 -54 8 -184 -11 -253 -37 -29 -11 -57 -17
-62 -14 -5 4 -28 38 -50 77 -40 69 -40 71 -23 97 12 18 17 46 17 93 0 59 -4
73 -30 111 -50 70 -144 108 -223 88z"/>
</g>
</svg>
