<?xml version="1.0" encoding="utf-8"?>
<!-- Generator: Adobe Illustrator 22.0.0, SVG Export Plug-In . SVG Version: 6.00 Build 0)  -->
<svg version="1.1" id="Слой_1" xmlns="http://www.w3.org/2000/svg" xmlns:xlink="http://www.w3.org/1999/xlink" x="0px" y="0px"
	 viewBox="0 0 431.1 434.8" style="enable-background:new 0 0 431.1 434.8;" xml:space="preserve">
<style type="text/css">
	.st0{fill:#6C7177;}
</style>
<path class="st0" d="M343.3,255.6c1.1-7.4,3.4-13.9,4.5-14.3c1.3-0.6,5.3,2.4,9,6.5c14.7,16.5,36.9,16.6,51.6,0.3
	c7.5-8.5,9.5-18.5,5.8-30.9c-3.7-12.5-10.9-19.7-21.8-22.7c-14.9-3.9-26.9,0.1-36.8,12.2c-3,3.8-6.5,6.7-7.8,6.7
	c-1.3,0-3.7-6.2-6.3-15.5c-2.3-8.5-7.4-21.4-11.3-28.8c-4.1-7.3-7.5-14-7.7-14.6c-0.2-0.8,6.4-8.6,14.8-17.7l15-16.3l8.6,0.8
	c11,1.1,26.4-3.7,33.5-10c8.9-8.1,14.3-22,13.5-33.9c-3.4-42.8-60.4-52.8-78.4-13.8c-3.8,8.2-4.6,17.4-2.8,29.2
	c0.7,3.8-2.5,8.5-13.9,20.6L298.2,129l-16.9-9.2c-24-13.3-43.4-17.5-73.8-16.4l-8.9,0.3l-4.9-19.4l-4.9-19.2l5.3-8.1
	c7.1-10.5,8.5-18.6,5.2-29.5c-5.7-19.2-22.7-28.5-41.3-23c-18.6,5.5-27.7,22.6-22,41.8c3.1,10.5,8.8,16.8,19.1,21.2l7.5,3.4
	l4.5,20.1l4.5,20.1l-11.6,6c-6.6,3.2-15.5,8.8-20.1,12.4l-8.1,6.4l-4.4-3.7c-3.9-3.2-4.2-4.4-3.6-11.3c2.2-20.5-13.7-37.7-34.8-37.8
	c-8.4,0-20.9,7-25.5,14.5c-6.7,9.9-8.1,23.9-3.2,34.1c6.3,13.6,25,22.4,38.6,18.3c3.1-0.9,6.6-0.1,9.5,2.4c4.4,3.7,4.4,4.1-4,21
	c-4.7,9.5-9.6,23.7-10.9,32c-1.5,8.2-2.8,15.2-2.9,15.7c-0.1,0.4-3.5,1-7.3,1.5c-5.7,0.6-7.8-0.4-11.2-5.2
	C67.6,211,54,204,46.2,204.4c-9.1,0.4-22.9,7.2-28,13.8c-5.4,7-8.3,21.2-5.7,29.9c2.6,8.6,12.7,19,21.1,21.9
	c7.9,2.7,23.2,0.8,31-3.8c2.3-1.3,6.3-5.4,8.6-9c3.8-5.5,5-6.3,11.9-6.4c7.7-0.2,7.7-0.2,9,8.4c1.5,10.8,12.6,34.6,21.5,46.4
	c3.8,4.9,6.5,10,6.2,11.1c-0.5,1.2-5.7,7.5-11.9,14c-10.9,11.6-11.3,11.7-17.3,9.9c-4.1-1.3-9.8-0.6-18.8,2
	c-11.3,3.4-13.8,4.9-19.6,12.1c-10.6,13.6-12.5,33.8-4.1,47.8c9.4,16.2,28.2,23.3,47,17.7c20.7-6.2,31.2-22.6,29.3-45.4
	c-1.2-10.9-1-11,10.7-23.6l11.9-12.5l14.6,6.9c16.6,8,43.2,13.2,60,12.2c11-0.8,11.3-0.6,13.2,5.9c1.6,5.4,0.8,8.3-4.3,16.5
	c-10.9,17.4-6.3,37.1,11.4,47.3c25.4,14.6,57-9.9,48.6-37.8c-3.2-10.7-9.7-18.4-19-22.3c-5.8-2.7-7.9-4.9-9.4-9.9
	c-1.9-6.5-1.8-6.8,6.6-10.7c5-2.1,13-6.8,18-10.2c5.6-3.7,10.1-5.5,11.4-4.6c1.2,0.7,10.8,9.5,21.5,19.5l19.2,18.3l-0.6,8.5
	c-0.6,11.2,1.2,16.7,8.2,24.9c15.2,17.4,41.5,15.4,53.5-4c12.6-20.7,1.6-46.4-21.5-50.6c-4.8-0.9-11.1-0.9-14.4,0.1
	c-5.2,1.5-7.3,0.1-25.5-16.8c-10.8-10.3-20.1-19.1-20.6-19.5c-0.4-0.7,4.2-10.4,10.1-22C337.6,276.1,341.9,264.6,343.3,255.6z
	 M328.3,254.5c-0.3,0.3-0.5,0.3-0.8-0.1c-0.3-0.4-0.6-0.4-0.4,0c0,0.2,0,0.5-0.3,0.8c-0.3,0.4-0.4,0.4-1,0.3
	c-0.4-0.1-0.8-0.1-1.1-0.1c-0.4,0-0.4,0-0.1,0.2c0.5,0.3,0.4,0.5-0.9,2.6c-0.8,1.4-0.9,1.5-1.6,1.6c-0.8,0.1-1.1,0.3-1.1,0.8
	c0,0.6-0.5,1.1-1.2,1.1c-0.6,0-0.7,0.1-1,0.7c-0.3,0.5-0.3,0.6-0.6,0.5c-0.4-0.2-0.6-0.2-0.7,0.1c-0.1,0.2-0.3,0.4-0.8,0.5
	c-1.1,0.3-1.6,0.2-2.3-0.2l-0.6-0.4l-0.4,0.4c-0.5,0.5-1.4,0.3-1.7-0.2c-0.2-0.3-0.3-0.4-0.9-0.4c-1.1,0-1.6-0.5-1.9-1.8
	c-0.1-0.6-0.8-1.4-1.1-1.4c-0.1,0-0.3-0.1-0.5-0.2c-0.1-0.1-0.4-0.2-0.6-0.2s-0.6-0.1-0.8-0.3l-0.4-0.3l-0.7,0.7
	c-0.8,0.7-0.9,0.7-2.1,0.3c-0.4-0.1-1-0.2-1.4-0.3h-0.7v0.7c0,0.5-0.1,0.8-0.5,1.3c-0.6,0.7-0.6,0.8-0.2,1.2
	c0.2,0.1,0.3,0.4,0.3,0.5c0,0.3-0.5,0.6-1,0.6c-0.3,0-0.3,0.1-0.3,1v1l-0.8-0.1c-0.6-0.1-0.8,0-1,0.1c-0.1,0.1-0.2,0.3-0.1,0.3
	c0.2,0.2,2.2,1.4,2.3,1.5c0.3,0.1,0.7,1.2,0.7,1.8c0,0.8,0.1,1.2,0.4,1.2c0.1,0,0.5,0.4,0.9,0.8c0.5,0.6,0.9,0.8,1.2,0.8
	c0.2,0,0.5,0.1,0.7,0.2c0.3,0.2,0.3,0.3,0.1,0.6c-0.2,0.3-0.1,0.4,0.3,1c0.3,0.3,0.6,0.6,0.7,0.7c0.1,0,0.1,0.2,0.1,0.4
	c0,0.2,0.1,0.6,0.2,0.8c0.3,0.7-0.3,1.6-1.2,2c-0.4,0.2-0.7,0.3-0.7,0.3s0.3,0.5,0.7,1.1c0.6,0.9,0.7,1.2,0.7,1.8
	c0,0.4,0.1,0.8,0.2,0.8c0.1,0,0.4,0.2,0.7,0.5c0.3,0.3,0.7,0.5,1,0.5c0.5,0,0.6,0.1,0.2,0.5c-0.1,0.2-0.3,0.3-0.5,0.2
	c-0.2,0-0.4,0.1-0.6,0.4c-0.2,0.3-0.4,0.5-0.6,0.5s-0.3,0.2-0.3,0.4c0,0.3,0,0.4,0.3,0.3c0.3-0.1,0.5,0,0.6,0.2
	c0.2,0.4,0.1,0.9-0.3,1.1c-0.2,0.1-0.2,0.1,0,0.4c0.2,0.2,0.2,0.3,0.1,0.4c-0.2,0.1-0.1,0.8,0.2,0.9c0.2,0.1,0.2,0.6,0.2,2
	c0,0.9-0.1,1.1-0.3,1.1c-0.4,0.1-0.4,0-0.1,0.8c0.2,0.4,0.4,0.6,0.6,0.6c0.2,0,0.4,0.1,0.4,0.2c0.1,0.1,0.4,0.3,0.7,0.4
	c0.5,0.1,0.5,0.1,0.6,1.1c0,0.5-0.1,1.2-0.1,1.5c-0.1,0.6-0.1,0.6,0.4,0.5c1.2-0.1,1.2-0.1,1.5,1c0.2,1.2,0.1,1.6-0.5,1.9
	c-0.6,0.3-1,0.3-1.3,0c-0.2-0.2-0.5-0.2-1.3-0.2c-0.6,0-1.3,0-1.8-0.2c-0.4-0.2-1-0.2-1.4-0.1c-0.7,0.1-0.7,0-0.9-0.3
	c-0.1-0.3-0.3-0.4-0.7-0.4c-0.5,0-1.1,0.3-1.1,0.6c0,0.1-0.3,0.3-0.6,0.5c-0.3,0.2-0.6,0.5-0.7,0.7c-0.1,0.8-0.2,1.1-0.5,1.4
	c-0.5,0.5-1.1,0.4-1.8-0.2c-0.3-0.4-0.7-0.6-1-0.6c-0.3,0-0.5-0.1-0.6-0.4c-0.1-0.3-0.2-0.4-0.5-0.3c-0.1,0.1-0.9,0.3-1.7,0.5
	c-1.4,0.3-1.5,0.3-1.8,0c-0.3-0.3-0.3-0.3-0.3,0c0,0.1-0.1,0.3-0.2,0.4c-0.1,0-0.2,0.2-0.1,0.5c0,0.2,0,0.5-0.1,0.6
	c-0.1,0.1-0.1,0.3-0.1,0.5c0.1,0.2,0,0.4-0.2,0.5c-0.2,0.2-0.3,0.3-0.1,0.5c0.2,0.2,0.2,0.3-0.2,0.4c-0.2,0.1-0.4,0.2-0.4,0.4
	c0,0.2-0.9,0.8-1.3,0.8c-0.2,0-0.2,0.2-0.2,0.8c0,0.9-0.3,1.3-1.1,1.3c-0.5,0-0.6,0-0.8,0.4c-0.1,0.2-0.3,0.6-0.5,0.8
	c-0.2,0.2-0.3,0.5-0.4,0.8c-0.1,0.3-0.2,0.5-0.5,0.5c-0.4,0.1-0.4,0.2-0.4,1c0,0.8,0,0.9-0.4,0.9c-0.6,0.1-0.6,0.2,0,0.5
	c0.3,0.1,0.4,0.2,0.2,0.4c-0.1,0.1-0.3,0.5-0.4,0.9c-0.2,0.6-0.3,0.6-0.8,0.6c-0.6,0-0.6,0-0.4,0.9c0.1,0.4,0,0.4-0.5,0.4
	c-0.6,0-0.8,0.1-0.4,0.4c0.1,0.1,0.1,0.3-0.1,0.5c-0.3,0.3-0.3,0.3,0.1,0.8c0.5,0.6,0.6,0.7,0,0.7c-0.6,0-0.5,0.3,0.1,0.6
	c0.5,0.3,0.5,0.3,0.2,0.6c-0.3,0.3-0.1,0.9,0.4,0.9c0.5,0,0.6,0.2,0.4,0.7c-0.2,0.4-0.2,0.6,0,0.7c0.1,0.1,0.2,0.3,0.2,0.5
	c0,0.2,0.2,0.4,0.5,0.6c0.4,0.3,0.4,0.4,0.1,0.6c-0.2,0.1-0.4,0.3-0.5,0.3c-0.3,0.1,0,0.9,0.4,1c0.2,0,0.5,0.4,0.7,0.8
	c0.3,0.6,0.3,0.8,0.2,1c-0.1,0.1-0.2,0.4-0.1,0.6c0.1,0.3,0,0.5-0.4,0.8c-0.5,0.4-0.5,0.5-0.3,0.8c0.4,0.4,0.1,0.8-0.7,1.2
	c-0.6,0.3-0.7,0.3-1.1,0.1c-0.2-0.1-0.7-0.2-1-0.2c-0.5,0-0.5,0-0.5-0.5c0-0.4,0-0.4-0.5-0.5c-0.4,0-0.8-0.3-1.5-1.1l-1-1l0.3-0.3
	c0.3-0.3,0.3-0.4,0.2-1.1c-0.1-0.6-0.3-0.9-1.1-1.8c-1.1-1.1-2.6-2.2-2.7-2c-0.2,0.5-0.3,0.6-0.6,0.4c-0.2-0.2-0.3-0.2-0.5,0.1
	c-0.2,0.2-0.3,0.2-1,0c-1.1-0.3-1.4-0.3-1.4,0c-0.1,0.5-1.4,0.8-1.8,0.4c-0.4-0.4-0.9-0.2-1.1,0.4c-0.2,0.6-0.2,0.6-1.1,0.6
	c-0.6,0-0.9,0-1.1,0.2c-0.1,0.2-0.3,0.2-0.8-0.3c-0.7-0.7-0.7-0.9-0.3-1.5c0.3-0.4,0.2-1.1-0.1-1.1c-0.1,0-0.5,0.2-0.8,0.4
	c-0.3,0.2-0.9,0.5-1.2,0.6c-0.5,0.2-0.6,0.3-0.7,0.7c-0.1,0.5-0.6,0.7-1,0.3c-0.4-0.5-0.4-0.5-1.1,2.1c-0.1,0.4-0.5,0.5-1.7,0.2
	c-0.5-0.1-0.7-0.1-1.4,0.4c-0.4,0.3-0.8,0.5-0.9,0.5c-0.1,0-0.2-0.5-0.3-1.1c-0.1-1.3-0.3-1.7-0.8-1.7c-0.2,0-0.3-0.1-0.3-0.3
	c0-0.2-0.1-0.5-0.2-0.7c-0.1-0.2-0.2-0.9-0.2-1.5c0-1.1,0-1.2-0.4-1.4c-0.3-0.1-0.5-0.3-0.5-0.6c0-0.2-0.1-0.5-0.3-0.6
	c-0.2-0.1-0.3-0.3-0.2-0.4c0-0.1,0-0.2-0.2-0.2c-0.2,0-0.2-0.1-0.1-0.5c0.1-0.5,0.1-0.5-0.6-0.5c-0.7-0.1-1,0.1-1,0.6
	c0,0.2-0.1,0.3-0.2,0.3c-0.1,0-0.4,0.3-0.6,0.6c-0.8,1.2-1.8,1.7-2,1c-0.1-0.3-0.2-0.3-0.8-0.2c-0.4,0.1-1.1,0.4-1.6,0.7
	c-0.7,0.5-1,0.8-1.4,1.8c-0.5,1.1-0.6,1.3-0.4,1.9c0.2,0.6,0.1,0.7-0.2,1.1c-0.2,0.3-0.4,0.5-0.5,0.5c-0.1,0-0.1-0.4-0.1-0.8
	c0-0.9-0.2-1-0.5-0.4c-0.1,0.2-0.3,0.4-0.3,0.4c-0.1,0-1-2.7-1.3-3.9c-0.1-0.7-0.1-0.7-1-0.7c-0.5,0-0.9-0.1-0.9-0.2
	c0-0.1-0.3-0.3-0.7-0.4c-0.7-0.3-0.7-0.3-1.5,0.1c-0.4,0.2-1,0.7-1.4,1l-0.7,0.6l-0.2-0.7c-0.2-0.8-1.3-2.3-1.8-2.3
	c-0.3,0-0.3-0.1-0.2-1c0-0.5,0-1,0-1c-0.3,0-1.9,1.4-1.9,1.6c0,0.4-0.4,1.1-0.5,1.1c-0.1,0-0.4,0.3-0.7,0.6
	c-0.3,0.4-0.6,0.5-0.8,0.5c-0.2-0.1-0.4,0-0.6,0.2c-0.3,0.3-2.5,0.6-2.5,0.3c0-0.1,0.1-0.3,0.3-0.6c0.4-0.6,0.3-0.8-0.3-0.3
	l-0.4,0.4l-0.1-0.5c-0.2-1.2-0.8-1.7-1.5-1.4c-0.5,0.2-0.5,0.2-0.4,1.2c0,0.6,0.1,1.3,0.1,1.6c0,0.5,0,0.6-0.3,0.6
	c-0.3,0-1.1,1-1.3,1.7c-0.1,0.2-0.2,0.4-0.3,0.4c-0.3,0-1.8-1.3-1.8-1.6c0-0.1,0.3-0.7,0.7-1.2c0.7-1,0.8-1.7,0.4-1.8
	c-0.2,0-0.4-0.2-0.6-0.2c-0.4-0.2-1.1-0.2-1.5,0c-0.3,0.2-0.4,0.1-0.9-0.3c-0.5-0.5-0.6-0.5-0.9-0.3c-0.2,0.2-0.3,0.2-0.3,0
	c-0.2-0.5-0.4-0.1-0.3,0.5c0,0.6,0,0.7-0.2,0.8c-0.2,0-0.3,0-0.4-0.2c-0.1-0.5-0.9-0.7-1.4-0.4c-0.3,0.2-0.5,0.2-0.9,0.1
	c-0.4-0.1-0.6-0.1-1.1,0c-0.3,0.1-0.9,0.2-1.3,0.2c-0.7,0-0.7,0-0.7-0.4c0-0.2,0.1-0.7,0.3-0.9c0.3-0.7,0.2-0.9-0.5-1l-0.5,0l0-1.7
	c0-1-0.1-1.8-0.2-1.9c-0.1-0.1-1.1-0.1-2.3,0c-2.1,0.1-2.2,0.1-2.7,0.6c-0.6,0.5-0.8,0.6-1.1,0.2c-0.1-0.1-0.4-0.2-0.7-0.2
	s-0.6-0.1-0.8-0.2c-0.2-0.1-0.4-0.1-0.8,0c-0.4,0.2-0.5,0.1-1-0.3c-0.3-0.3-0.5-0.7-0.5-0.9c0-0.7-0.2-0.8-2.1-1.1
	c-0.7-0.1-1-0.1-1.5,0.2c-0.4,0.2-0.8,0.4-0.9,0.6c-0.3,0.4-1.3,0.1-2.1-0.5c-0.4-0.3-0.8-0.6-1-0.6c-0.2,0-0.3-0.1-0.3-0.7
	c0-0.8-0.1-0.9-0.8-0.5c-0.5,0.3-1.2,0.3-1.5,0c-0.2-0.2-0.4-0.2-0.9-0.1c-1.7,0.3-1.9,0.2-2.8-0.7c-0.5-0.5-1-0.9-1.3-0.9
	c-0.2,0-0.5-0.1-0.6-0.2c-0.3-0.3-1.2-0.3-1.9,0c-0.7,0.3-2.6,0-2.7-0.4c0-0.2-0.3-0.3-0.6-0.4c-0.7-0.1-0.8,0-0.8,0.5v0.4l-1.9-0.1
	c-1.2-0.1-2.1-0.2-2.6-0.4c-0.7-0.3-0.8-0.3-1,0c-0.6,0.8-3.4,0.4-4.7-0.7c-0.6-0.5-0.7-0.5-1.8-0.5c-0.6,0-1.3,0.1-1.5,0.2
	c-0.2,0.1-0.5,0.2-0.7,0.2c-0.2,0-0.9,0.3-1.5,0.7c-1.8,1.2-2.7,1.5-3.1,1c-0.2-0.2-0.3-0.2-0.8-0.1c-0.5,0.2-0.7,0.2-0.7,0
	c-0.1-0.3-0.5-0.2-1.2,0.2c-0.5,0.3-0.7,0.4-1.2,0.3c-0.3,0-0.8-0.1-1-0.1c-0.3,0-0.8-0.1-1.3-0.2c-0.6-0.1-0.9-0.1-1.3,0.1
	c-0.3,0.2-1.2,0.3-2.3,0.4c-1.6,0.1-1.9,0.1-2.3,0.5c-0.3,0.2-0.6,0.7-0.7,1c-0.1,0.3-0.3,0.6-0.5,0.7c-0.3,0.1-0.3,0.9,0,1.9
	c0.2,0.8,0.2,0.8,0,1.1c-0.3,0.3-1.7,1.2-3.2,2c-0.5,0.3-0.9,0.7-1.2,1.3c-0.5,0.8-2.2,2.4-2.6,2.4c-0.1,0-0.4-0.1-0.6-0.2
	c-0.3-0.1-0.7-0.2-1.1-0.1c-0.8,0.1-1-0.1-0.6-0.9c0.1-0.3,0.2-0.6,0.2-0.6c-0.3-0.2-1.2-0.4-1.7-0.3c-0.5,0.1-0.6,0-0.7-0.3
	c-0.1-0.2-0.2-0.4-0.3-0.4c-0.4,0-3.3,1.4-3.4,1.6c0,0.1,0.1,0.5,0.4,0.9c0.4,0.6,0.5,0.8,0.3,1.2c-0.1,0.4-0.1,0.5,0.3,1.1
	c0.4,0.6,0.4,0.7,0.2,0.9c-0.4,0.3-1.1,0.1-1.1-0.2c0-0.5-0.2-0.8-0.5-0.8c-0.4,0-0.7-0.4-0.6-1c0.1-0.3,0-0.6-0.2-0.8
	c-0.3-0.2-0.3-0.5-0.3-1.4c0-0.6,0.1-1.2,0.1-1.2c0.1-0.1,0.1-0.6,0.2-1.2c0-0.8-0.1-1.1-0.2-1.2c-0.4-0.2-0.2-0.8,0.6-1.1
	c0.8-0.4,1.5-1.1,1.5-1.6c0-0.2-0.2-0.6-0.4-0.8c-0.3-0.3-0.4-0.6-0.3-0.8c0.1-0.1,0.1-0.4,0.1-0.7s0.1-0.4,0.2-0.5
	c0.3-0.1,0.2-0.7-0.1-1.1c-0.3-0.3-0.3-0.3,0.1-0.6c0.2-0.1,0.4-0.4,0.4-0.7c0-0.2,0.2-0.6,0.4-0.8c0.3-0.3,0.4-0.5,0.3-0.9
	c0-0.3-0.2-1.1-0.3-1.9c-0.2-1.3-0.3-1.4-1-2.1c-0.5-0.5-0.8-0.7-1.1-0.7c-0.2,0-0.4,0-0.6-0.3c-0.1-0.2-0.5-0.5-0.7-0.6
	c-0.3-0.1-0.4-0.3-0.3-0.7c0.1-0.4,0-0.5-0.4-0.6c-0.3,0-0.6,0-0.7,0.1c-0.3,0.2-0.7,0-0.8-0.5c0-0.2-0.3-0.3-0.5-0.4
	c-1.1-0.2-1.5-0.3-1.7-0.5c-0.1-0.1-0.5-0.2-0.9-0.2c-1.4,0-1.7-0.3-1.4-1.3c0.1-0.4,0.1-0.7-0.1-0.8c-0.2-0.2-0.1-0.5,0.7-2
	c0.5-1,1.1-2,1.3-2.1s0.5-0.7,0.7-1.2c0.8-2.1,3.4-4.8,5.1-5.5c0.5-0.2,1.2-0.5,1.4-0.7c0.7-0.4,2.2-0.7,2.6-0.4
	c0.2,0.1,0.4,0.1,0.8-0.2c0.2-0.2,0.9-0.8,1.5-1.4c0.6-0.5,1.1-0.9,1.3-0.9c0.1,0,0.4-0.3,0.7-0.7c0.5-0.8,0.5-0.5,0.1-6.2
	c-0.2-2.6-0.2-2.6,0.2-3c0.3-0.3,0.3-0.4,0.1-0.8c-0.1-0.2-0.3-0.7-0.3-1c0-0.8-0.4-2.2-0.8-2.4c-0.3-0.3-0.3-1.5,0.1-2.2
	c0.6-1.1,0.6-1.5-0.1-2.1c-0.3-0.3-0.7-0.9-0.8-1.2c-0.1-0.4-0.4-0.8-0.6-1c-0.3-0.3-1.3-2.7-2-5c-0.1-0.5-0.4-1.4-0.6-2.1
	c-1.3-3.9-2.9-10.1-2.9-11.2c0-0.6-0.1-0.8-0.3-1c-0.3-0.2-0.3-0.3-0.3-1.8c0-1.5,0-1.6-0.4-2.1c-0.5-0.6-0.5-1.2-0.3-2.8
	c0.1-0.6,0.1-0.7,0.3-0.5c0.1,0.2,0.5,0.3,0.8,0.3c0.4,0,0.6,0.1,0.8,0.3c0.1,0.2,0.3,0.3,0.4,0.2c0.1,0,0.7-0.1,1.4-0.2
	c1.1-0.1,1.3,0,1.6,0.3c0.2,0.2,0.3,0.5,0.3,0.7c0,0.4,0.1,0.4,0.5,0.1c0.3-0.1,0.3-0.3,0.2-0.7c-0.1-0.8,0.3-1.2,1.3-1
	c0.7,0.1,0.8,0.1,0.9-0.2c0.1-0.4,0.2-0.4,0.8-0.2c0.3,0.1,0.5,0.3,0.6,0.7c0.1,0.6,0.1,0.6,1.7,0.3c0.8-0.1,1.3-0.3,1.4-0.5
	c0.1-0.2,0.3-0.3,0.5-0.3c0.2,0,0.5-0.1,0.7-0.2c0.6-0.3,0.8-0.3,1,0.2c0.1,0.3,0.3,0.4,0.5,0.3s0.4,0,0.8,0.5
	c0.5,0.7,1.4,1.3,1.5,1c0.1-0.1,0.2-0.1,0.4,0c0.2,0.1,0.6,0.2,1,0.2c0.7,0,0.8,0,2.3-1.7c0.9-0.9,1.7-1.7,1.8-1.7
	c0.1,0,0.3-0.1,0.5-0.3c0.2-0.2,0.5-0.3,0.7-0.3s0.5-0.1,0.7-0.2c0.5-0.3,0.8,0,0.5,0.7c-0.1,0.3-0.2,0.7-0.2,0.8
	c0,0.5,0.7,0.4,1.3-0.2c0.3-0.3,0.8-0.6,1.3-0.7c0.6-0.1,0.7-0.3,0.8-0.6c0-0.2,0.2-0.4,0.3-0.4c0.4,0,0.2-0.3-0.2-0.4
	c-0.4,0-0.5-0.1-0.6-0.6c0-0.3-0.3-0.9-0.5-1.2c-0.6-0.8-0.6-0.9,0-1.3c0.3-0.2,0.5-0.4,0.5-0.6c0-0.2,0.1-0.3,0.5-0.4
	c0.3-0.1,0.9-0.3,1.3-0.5c0.9-0.5,1.5-0.5,1.6,0c0.1,0.4,0.4,0.6,1.3,0.7c0.8,0.1,1.2-0.1,1.6-0.9c0.2-0.4,0.4-0.7,0.5-0.7
	c0.1,0,0.4-0.3,0.8-0.7c0.5-0.5,0.8-1,0.9-1.5c0.1-0.6,0.2-0.7,0.4-0.7c0.1,0,0.5,0,0.7-0.1c0.3-0.1,0.6-0.2,0.9-0.1
	c0.7,0.2,1.3,0,2.1-0.7c0.5-0.5,0.7-0.6,1.1-0.5c0.4,0.1,0.6,0,0.8-0.3c0.4-0.4,0.6-0.3,0.6,0.2c0,0.2,0.2,0.5,0.4,0.7
	c0.4,0.2,1.1,1.4,1.1,1.8c0,0.1-0.2,0.2-0.4,0.2c-0.4,0-0.4,0-0.3,0.7c0.1,0.6,0.1,0.7-0.4,0.8c-0.7,0.2-0.6,0.5,0.1,1.1
	c0.4,0.4,0.8,0.5,1.2,0.5c0.4,0,0.7,0.1,0.8,0.3c0.2,0.2,0.3,0.2,0.7,0c0.3-0.1,0.5-0.3,0.5-0.3c0-0.1,0.1-0.3,0.3-0.4
	c0.2-0.2,0.4-0.3,0.6-0.1c0.2,0.1,0.4,0.1,0.5,0c0.2-0.1,0.3-0.1,0.6,0c0.4,0.3,0.6,0.1,0.3-0.3c-0.1-0.1-0.3-0.5-0.3-0.7
	s-0.1-0.6-0.2-0.8c-0.2-0.3-0.2-0.3,0.2-0.7c0.2-0.2,0.3-0.4,0.2-0.4c-0.1,0-0.4-0.3-0.5-0.6c-0.2-0.4-0.5-0.7-0.7-0.7
	c-0.3,0-0.4-0.2-0.5-0.7c-0.1-0.8-0.5-1.2-0.8-1c-0.3,0.2-1.6,0.3-1.6,0c0-0.1-0.1-0.1-0.3-0.1c-0.2,0.1-0.4,0-0.6-0.3
	c-0.2-0.2-0.2-0.4-0.2-0.5c0.3-0.2,1-1.4,1-1.7c0-0.2,0.1-0.5,0.3-0.6c0.6-0.4,0.8-1.5,0.3-2.1c-0.1-0.1-0.1-0.2,0.1-0.3
	c0.1,0,0.5-0.6,0.7-1.2c0.4-1.1,0.7-1.4,1.8-2.2c0.2-0.2,0.5-0.6,0.6-0.9c0.2-0.5,0.1-0.7-0.1-1.6c-0.3-0.9-0.3-1.4-0.3-4.2
	c0-2.8,0.1-3.2,0.3-3.4c0.1-0.1,0.3-0.4,0.3-0.6c0-0.3,0.3-0.7,1-1.4c0.6-0.6,1-1.1,1-1.4c0-0.5,0.4-1,0.8-1c0.1,0,0.6-0.2,1.1-0.4
	c0.7-0.4,0.9-0.4,1.2-0.2c0.6,0.4,2.1,0.1,1.9-0.4c-0.1-0.2,0-0.3,0.3-0.4c0.2-0.1,0.4-0.2,0.5-0.3c0-0.1,0.4-0.3,0.9-0.4
	c0.6-0.1,0.9-0.3,1.1-0.7c0.4-0.7,0.6-1.2,0.6-1.5c0-0.2,0.1-0.5,0.3-0.7l0.3-0.4l-0.4-0.5c-0.5-0.6-0.4-0.7,0.4-1
	c0.3-0.1,0.9-0.4,1.2-0.8c0.5-0.4,0.7-0.5,0.9-0.4c0.2,0.1,0.4,0.2,0.4,0.3c0.1,0.1,0.2,0.1,0.4,0c0.2-0.1,0.5-0.1,0.8,0.1
	c0.7,0.3,0.9,0.3,0.9-0.1c0-0.2,0.2-0.4,0.5-0.6c0.5-0.2,0.5-0.2,0.7,0c0.2,0.2,0.3,0.3,0.8,0.1c0.4-0.1,0.6-0.1,0.8,0
	c0.1,0.1,0.3,0.1,0.6-0.1c0.2-0.1,0.5-0.3,0.6-0.3c0.1,0,0.4-0.1,0.6-0.3c0.3-0.3,0.4-0.3,0.1-0.5c-0.4-0.3-0.3-0.8,0-0.8
	c0.4,0,0.8-0.6,0.8-1.2c0-0.4,0.4-0.8,1.7-1.6c0.4-0.2,0.6-0.8,0.5-1.1c-0.1-0.3-0.7-0.5-1.7-0.7c-0.4-0.1-1-0.3-1.3-0.4l-0.5-0.3
	l-0.4,0.4c-0.3,0.3-0.4,0.3-0.5,0.2c-0.1-0.2-0.1-0.2-0.3,0c-0.3,0.3-1.2,0.3-1.6,0c-0.2-0.1-0.8-0.3-1.3-0.5
	c-0.9-0.2-1.3-0.6-0.7-0.6c0.1,0,0.3-0.1,0.4-0.3c0.1-0.2,0.2-0.3,0.3-0.3c0.4,0,1.3-0.8,1.5-1.2c0.1-0.3,0.1-0.8,0.1-1.3
	c-0.1-0.5,0-0.9,0.1-1.2c0.2-0.3,0.2-0.4,0-0.4c-0.4-0.1-0.7-0.6-0.7-1c0-0.2,0.1-0.4,0.2-0.4c0.1,0,0.2-0.1,0.2-0.2
	c0-0.1,0.5-0.8,1.2-1.4l1.2-1.1v-1.1c0-0.7-0.1-1.2-0.2-1.4c-0.3-0.4-0.3-1.3,0-1.9c0.3-0.6,1.2-0.7,1.9-0.1
	c0.3,0.2,0.7,0.5,0.9,0.5c0.4,0.1,0.5,0,0.5-0.2c0-0.2,0.3-0.4,0.9-0.6c0.8-0.3,1.1-0.6,1.1-1.2c0-0.2,0.1-0.4,0.2-0.5
	c0.1-0.1,0.3-0.5,0.3-0.9c0.1-0.5,0.2-0.7,0.5-0.7c0.2-0.1,0.5-0.3,0.6-0.6c0.4-0.7,0.9-1,1.8-1c0.9,0,1.3-0.1,1.3-0.4
	c0-0.1,0.2-0.3,0.5-0.4c0.4-0.1,0.6-0.1,0.7,0c0.1,0.1,0.4,0.3,0.7,0.4c0.3,0.1,0.8,0.5,1,0.9c0.9,1.2,1.2,1.3,2.5,0.2l0.6-0.5
	l1,0.5c0.9,0.4,1.2,0.5,2.7,0.6l1.7,0.1l0.3-1.3c0.2-1.1,0.2-1.4,0.1-2c-0.1-0.5-0.1-0.7,0.1-1c0.1-0.2,0.3-0.6,0.3-0.8
	c0-0.5,2.1-2.5,2.5-2.3c0.4,0.1,1-0.2,1-0.6c0-0.2,0.2-0.5,0.4-0.7c0.3-0.3,0.3-0.4,0.1-0.7c-0.1-0.2-0.2-0.4-0.1-0.4
	c0.4-0.2,1.3-0.5,1.7-0.4c0.4,0,0.5-0.1,0.7-0.8c0.1-0.5,0.5-1.1,0.7-1.3c0.2-0.3,0.4-0.5,0.4-0.6c0-0.1,0.3-0.1,0.7-0.1
	c0.6,0.1,0.7,0.1,0.8-0.2c0-0.2,0.2-0.3,0.4-0.3c0.2,0,0.5-0.3,0.8-0.7c0.6-0.8,1-0.9,1-0.2c0,0.4,0.4,0.8,1.2,1
	c0.6,0.1,0.9,0.5,0.9,1.3c0,0.8,0.1,0.9,0.5,0.6c0.2-0.2,0.3-0.1,0.3,0.1c0.2,0.6,0.6,0.9,1.3,0.9c0.9,0,1.2-0.3,0.9-0.9
	c-0.2-0.4-0.1-1.1,0.2-1.1c0.1,0,0.2,0.1,0.3,0.3c0.4,0.8,0.5,0.8,0.8,0.4c0.2-0.2,0.6-0.3,0.9-0.3c0.3,0,0.8-0.1,1-0.2
	c0.3-0.1,0.6-0.1,1,0c0.3,0.1,1,0.2,1.4,0.2c0.9,0,1.1,0.2,0.5,0.6c-0.4,0.3-0.4,0.4-0.3,0.9c0.1,0.3,0.4,0.8,0.7,1.1
	c0.3,0.3,0.5,0.7,0.5,1c0,0.2,0.1,0.7,0.3,1c0.3,0.6,0.3,0.6,1.2,0.6c0.8,0,1,0.1,1.2,0.3c0.3,0.4,0.4,0.3,0.5-0.4
	c0.1-0.3,0.2-0.6,0.3-0.6c1.2-0.1,1.5-0.2,1.4-0.5c-0.1-0.3,0.4-0.6,1-0.6c0.2,0,0.6-0.1,0.7-0.2c0.1-0.1,0.5-0.3,0.9-0.4
	c0.6-0.2,0.6-0.1,0.9,0.2c0.3,0.4,0.3,0.4,0.7,0.1c0.4-0.2,0.5-0.2,0.9,0c0.2,0.2,0.6,0.5,0.8,0.8c0.3,0.4,0.4,0.5,0.9,0.3
	c0.6-0.2,1.8,0.1,2.2,0.5c0.2,0.2,0.5,0.3,1,0.3c0.4,0,0.8,0.1,1,0.2c0.3,0.2,0.3,0.3,0,0.5c-0.2,0.3-0.2,0.3,0.3,0.6
	c0.9,0.5,0.9,0.7-0.1,1.1c-1,0.4-1,0.4-0.7,0.7c0.3,0.3,0.2,0.6-0.1,1.1c-0.2,0.3-0.3,0.7-0.4,1.1c0,0.4-0.1,0.8-0.2,0.9
	c-0.1,0.2-0.2,0.6-0.2,1.2l0,0.9l0.8,0.3c0.6,0.2,0.9,0.4,1.2,0.9c0.8,1.5,1.7,1.3,2.8-0.9c0.5-1,1.2-1.5,2.2-1.5
	c0.3,0,0.6-0.1,0.8-0.2c0.5-0.4,0.8-0.3,1.1,0.2c0.1,0.2,0.3,0.4,0.5,0.4c0.3,0,1-0.8,1-1.1c0-0.1,0.1-0.2,0.2-0.2
	c0.1,0,0.4-0.4,0.6-0.8c0.3-0.7,0.4-0.8,0.9-0.7c0.4,0.1,0.6,0,1-0.2c0.4-0.3,0.5-0.3,1.3,0c0.4,0.2,1.1,0.5,1.5,0.7
	c0.3,0.2,0.7,0.4,0.8,0.4c0.3,0,1.2-1,1.1-1.3c0-0.2,0-0.3,0.1-0.3c0.1,0,0.1,0.1,0.1,0.1c0,0.1,0.5,0.1,1,0.1
	c1.2-0.1,1.4,0,1.5,0.9c0,0.4,0.1,0.5,0.6,0.5c0.5,0,0.6,0.1,0.8,0.4c0.2,0.4,0.3,0.4,1.4,0.4c1,0,1.3,0,1.8,0.3l0.6,0.3l-0.4,0.3
	c-0.4,0.3-0.4,0.3-0.1,0.7c0.3,0.5,0.7,0.7,1.5,0.8c0.3,0,0.7,0.3,1,0.7c0.5,0.5,0.5,0.7,0.5,1.3c0,0.6,0.1,0.8,0.3,0.8
	c0.2,0,0.2,0.1,0.1,0.3c0,0.2,0,0.4,0.1,0.4c0.1,0,0.2,0.3,0.2,0.6c0,0.4,0,0.5,0.2,0.3c0.1-0.1,0.2-0.3,0.2-0.4
	c0-0.1,0.1-0.3,0.3-0.4c0.3-0.1,0.4-0.1,0.6,0.2c0.1,0.2,0.3,0.8,0.4,1.2c0.1,0.9,0.2,1.1,0.7,1.2c0.2,0.1,0.4,0,0.4-0.2
	c0-0.2,0.2-0.3,0.3-0.3c0.2,0,0.5-0.5,0.6-1c0-0.1,0.2-0.1,0.6,0.1c0.4,0.2,0.7,0.3,0.8,0.2c0.4-0.3,0.5-0.2,0.5,0.7
	c0,0.5,0.1,1.2,0.2,1.6c0.2,0.6,0.2,0.7-0.2,0.8c-0.5,0.2-0.5,0.7,0,1.2l0.4,0.3l-0.5,0.5c-0.3,0.3-0.6,0.5-0.8,0.5
	c-0.3,0-0.3,0-0.1,0.2c0.1,0.1,0.2,0.4,0.2,0.7c0,0.3,0.1,0.7,0.2,0.9c0.5,0.8,0.3,1.5-0.6,2.4c-0.4,0.5-0.9,0.9-1,0.9
	c-0.3,0-0.5,0.5-0.5,1.3c0,1.1,0,1.2,0.3,1.2c0.5,0,0.8,0.2,0.8,0.4c0,0.1,0.1,0.3,0.3,0.4c0.2,0.1,0.3,0.4,0.4,0.9
	c0.1,1,0.2,1.2,0.5,1.2c0.3,0,0.8,0.5,0.8,0.8c0,0.2,0.1,0.3,0.2,0.4c0.2,0.1,0.2,0.2,0.1,0.4c-0.2,0.4-0.2,0.7,0.1,0.7
	c0.2,0,0.2,0.2,0.1,1.2c-0.1,1,0,1.2,0.3,1.6c0.7,0.9,0.4,1.6-0.6,1.4c-0.7-0.1-1.3,0.1-1.3,0.4c0,0.1,0.2,0.4,0.5,0.8
	c0.3,0.4,0.4,0.7,0.3,0.8c-0.1,0.1-0.2,0.3-0.2,0.4c0,0.4-1.1,0.8-2.1,0.8c-0.8,0-0.8,0-0.7,0.4c0.2,0.8,0.3,1.3,0.1,1.5
	c-0.1,0.1-0.1,0.4-0.1,0.6c0.1,0.2,0,0.4-0.2,0.4s-0.5,0.5-0.8,1.4l-0.5,1.3l0.4,0.1c0.2,0.1,0.6,0.2,0.8,0.3
	c0.2,0.1,0.6,0.4,0.9,0.7c0.3,0.4,0.7,0.7,1.2,0.8c0.4,0.1,0.8,0.4,1.1,0.8c0.3,0.4,0.7,0.7,0.9,0.7c0.6,0,0.6,0.3,0.2,0.8
	c-0.9,0.8-0.2,1.1,2.5,1.1l1.6,0l0.2,0.7c0.3,0.9,0.2,1.1-0.7,2.2c-0.5,0.6-0.7,0.9-0.6,1.2c0,0.2-0.1,0.5-0.4,0.8
	c-0.4,0.4-0.5,0.5-0.4,1.1c0.1,0.4,0.2,0.6,0.4,0.6c0.2,0,0.5,0.2,0.8,0.5c0.4,0.4,0.5,0.4,0.7,0.3c0.2-0.1,0.3-0.1,0.3,0
	c0.1,0.1,0.2,0.2,0.4,0.3c0.1,0.1,0.3,0.2,0.4,0.4c0,0.2,0.2,0.7,0.4,1.1c0.2,0.5,0.3,1,0.2,1.3c-0.1,0.5,0,0.6,0.4,0.8
	c0.3,0.1,0.6,0.5,0.7,0.7c0.2,0.4,0.1,0.5-0.2,0.8c-0.4,0.5-0.5,0.6-0.1,0.6c0.2,0,0.2,0.2,0.2,0.9c0,1.6,0,1.7,0.3,1.7
	c0.2,0,0.4,0.1,0.4,0.2c0.1,0.1,0.1,0.1,0.3,0c0.3-0.3,0.4-0.2,0.4,0.2c0,0.2,0.1,0.4,0.4,0.4l0.4,0.1l-0.4,0.1
	c-0.6,0.2-0.4,0.5,0.3,0.5c0.5,0,0.7,0.1,1,0.5c0.2,0.3,0.5,0.5,0.7,0.5c0.2,0,0.3,0.1,0.3,0.3c0,0.4,0.3,0.7,0.6,0.7
	c0.1,0,0.4,0.1,0.6,0.3c0.4,0.4,1.2,0.5,1.7,0.3c0.4-0.2,0.9,0.2,0.9,0.8c0,0.4,0.2,0.5,0.7,0.2c0.2-0.1,0.4-0.1,0.5,0
	c0.1,0.1,0.3,0.1,0.6,0.1c0.4-0.1,0.4-0.1,0.3,0.5c-0.1,0.6-0.1,0.6,0.3,0.6c0.2,0,0.5-0.1,0.6-0.2c0.1-0.1,0.3-0.2,0.4-0.1
	c0.1,0.1,0.4,0.1,0.7,0.1c0.7,0,0.9,0.1,0.7,0.5c-0.1,0.2-0.1,0.5,0,0.8c0.2,0.4,0.1,0.5-0.2,1c-0.5,0.6-0.5,0.7-0.1,1.1
	c0.4,0.4,0.4,1-0.1,1.3c-0.3,0.2-0.4,0.4-0.4,1.1c0,0.5-0.1,0.9-0.2,1c-0.1,0.1-0.2,0.3-0.2,0.5c0,0.2-0.1,0.3-0.2,0.4
	c-0.2,0-0.2,0.1,0,0.3c0.3,0.3,0.1,0.6-0.4,0.6c-0.3,0-0.4,0.1-0.4,0.4c0,0.3-0.1,0.4-0.3,0.4c-0.2,0-0.2,0.1-0.1,0.3
	c0.1,0.2,0.1,0.5,0.1,0.7c0,0.4,0,0.4,0.5,0.2c0.2-0.1,0.4,0,0.9,0.2c0.3,0.2,0.7,0.4,0.8,0.4c0.1,0,0.3,0.1,0.4,0.2
	c0.1,0.1,0.2,0.1,0.3,0c0.1-0.1,0.5-0.2,0.9-0.2c0.5,0,0.8-0.1,0.9-0.3c0.1-0.2,0.4-0.3,1.2-0.3c0.7,0,1.1-0.1,1.3-0.2
	c0.3-0.3,0.6-0.3,1,0c0.2,0.1,0.6,0.3,1,0.4c0.6,0.1,0.7,0.1,0.8,0.6c0.1,0.5,0.6,0.7,0.9,0.4c0.1-0.1,0.3-0.2,0.4-0.2
	c0.2,0,0.2,0,0,0.2c-0.2,0.2-0.1,0.2,0.3,0.2c0.7,0,1.3,0.5,1.3,1.1c0,0.4,0,0.4,0.7,0.3c0.4-0.1,0.8-0.2,1-0.3
	c0.4-0.2,0.8-0.2,0.7,0.1c0,0.1,0.1,0.3,0.3,0.5c0.8,0.5,0.4,1.3-0.8,1.6c-0.5,0.1-0.8,0.7-0.5,1.2c0.2,0.3,0.2,0.3,0.2,0
	c0-0.1,0.1-0.3,0.1-0.3c0.3,0,0.3,0.3,0.1,0.7c-0.3,0.7-0.3,0.9,0.2,1.6c0.2,0.3,0.5,0.7,0.6,1c0.1,0.2,0.4,0.5,0.7,0.7
	c0.3,0.2,0.7,0.4,0.7,0.6c0,0.1,0.3,0.3,0.6,0.3c0.4,0,0.6,0.1,0.6,0.5c0.1,1.2,0.4,1.4,0.7,0.5l0.2-0.4l0.4,0.4
	c0.2,0.2,0.7,0.5,1,0.7c1,0.5,1.2,1.1,0.8,2.1c-0.1,0.1,0.1,0.3,0.3,0.4c0.4,0.2,0.4,0.4,0,0.4c-0.1,0-0.3,0.2-0.4,0.4
	c-0.2,0.4-0.2,0.5,0,1l0.3,0.6h-0.8C328.8,254.3,328.5,254.4,328.3,254.5z"/>
</svg>
