<svg version="1.1" id="clipSvg" xmlns="http://www.w3.org/2000/svg" xmlns:xlink="http://www.w3.org/1999/xlink" x="0px" y="0px"
	 viewBox="0 0 24 24" style="enable-background:new 0 0 24 24;" xml:space="preserve">
<style type="text/css">
	.st0{fill:#D2D4D8;}
</style>
<path class="st0" d="M16.5,6v11.5c0,2.2-1.8,4-4,4s-4-1.8-4-4V5c0-1.4,1.1-2.5,2.5-2.5s2.5,1.1,2.5,2.5v10.5c0,0.6-0.4,1-1,1
	s-1-0.4-1-1V6H10v9.5c0,1.4,1.1,2.5,2.5,2.5s2.5-1.1,2.5-2.5V5c0-2.2-1.8-4-4-4S7,2.8,7,5v12.5c0,3,2.5,5.5,5.5,5.5s5.5-2.5,5.5-5.5
	V6H16.5z"/>
</svg>
